<svg id="Layer_2" xmlns="http://www.w3.org/2000/svg" viewBox="0 0 165.79 167.16">
    <defs>
        <style>.cls-2{fill:#101414}.cls-3{fill:#101111}</style>
    </defs>
    <g id="Layer_1-2">
        <ellipse cx="82.9" cy="83.58" rx="78.65" ry="79.34" style="fill:#ffea6e"/>
        <path class="cls-3"
              d="M82.9 167.16C37.19 167.16 0 129.67 0 83.58S37.19 0 82.9 0s82.89 37.49 82.89 83.58-37.18 83.58-82.89 83.58Zm0-158.68c-41 0-74.41 33.69-74.41 75.1s33.38 75.09 74.41 75.09 74.4-33.68 74.4-75.09-33.37-75.1-74.4-75.1Z"/>
        <path class="cls-2"
              d="M31.69 97.23h10.27v10.27H31.69zM42.02 107.5h10.27v10.27H42.02zM52.36 97.23h10.27v10.27H52.36zM62.7 107.5h10.27v10.27H62.7zM72.97 97.23h10.27v10.27H72.97zM83.31 107.5h10.27v10.27H83.31zM93.65 97.23h10.27v10.27H93.65zM114.26 97.23h10.27v10.27h-10.27zM103.99 107.5h10.27v10.27h-10.27zM131.81 107.5h-6.88l-2.55 21.73c-.24 3 2.54 5.55 6.06 5.55s6.29-2.55 6.05-5.55l-2.68-21.73Zm-3.37 24.64c-1.91 0-3.45-1.53-3.46-3.44s1.53-3.45 3.44-3.46a3.45 3.45 0 0 1 3.46 3.44c0 1.91-1.53 3.45-3.43 3.46h-.01Z"/>
        <path class="cls-3"
              d="m106.39 63.26 10.71-6.07c-2-6.77-6.08-12-10.42-12.16-6.52-.31-11.58 10.71-11.5 19.41.08 9.11 5.82 20 12.05 19.31 4.57-.5 8.92-7.19 10-16.17l-10.84-4.32ZM59.75 63.26l10.71-6.07c-2-6.77-6.08-12-10.42-12.16-6.52-.31-11.58 10.71-11.5 19.41.08 9.11 5.82 20 12 19.31 4.57-.5 8.92-7.19 10-16.17l-10.79-4.32Z"/>
    </g>
</svg>
